<?xml version="1.0" standalone="no"?>
<!DOCTYPE svg PUBLIC "-//W3C//DTD SVG 20010904//EN"
 "http://www.w3.org/TR/2001/REC-SVG-20010904/DTD/svg10.dtd">
<svg version="1.0" xmlns="http://www.w3.org/2000/svg"
 width="1200.000000pt" height="1200.000000pt" viewBox="0 0 1200.000000 1200.000000"
 preserveAspectRatio="xMidYMid meet">
<metadata>
Created by potrace 1.11, written by Peter Selinger 2001-2013
</metadata>
<g transform="translate(0.000000,1200.000000) scale(0.100000,-0.100000)"
fill="#000000" stroke="none">
<path d="M4170 9417 c-8 -12 -15 -28 -16 -35 -4 -24 25 -120 55 -184 38 -79
131 -246 154 -273 14 -18 117 -179 124 -195 3 -8 19 -31 35 -51 15 -20 28 -40
28 -43 0 -4 23 -37 50 -75 28 -38 50 -74 50 -80 0 -6 3 -11 8 -11 4 0 16 -17
27 -37 11 -20 25 -42 32 -48 6 -7 57 -82 112 -166 55 -85 103 -158 108 -164 5
-5 28 -41 51 -80 64 -103 180 -288 189 -301 4 -5 14 -21 22 -35 188 -321 259
-455 347 -654 25 -55 49 -109 54 -120 11 -22 79 -222 85 -245 2 -8 11 -54 21
-103 l17 -87 -59 -58 c-32 -31 -79 -80 -104 -107 -24 -28 -103 -92 -175 -142
-71 -51 -135 -96 -140 -100 -6 -5 -51 -35 -100 -68 -50 -33 -92 -62 -95 -65
-3 -3 -52 -36 -110 -75 -57 -38 -111 -75 -120 -82 -8 -7 -53 -41 -100 -75
-137 -101 -211 -184 -191 -216 13 -22 60 -30 157 -26 54 2 110 6 124 10 14 3
53 8 88 11 51 4 62 3 62 -9 0 -13 -72 -114 -92 -128 -12 -9 -118 -172 -119
-184 0 -6 -2 -18 -4 -27 -13 -68 94 -57 315 30 108 43 115 46 240 104 73 33
98 45 265 122 300 140 349 161 412 174 29 6 94 24 144 41 l91 30 74 -68 c64
-57 176 -179 229 -247 169 -218 312 -446 530 -840 71 -128 285 -552 519 -1025
231 -469 361 -660 448 -660 54 0 87 83 90 230 2 71 -7 225 -17 280 -4 28 -11
73 -20 145 -4 28 -11 66 -15 85 -5 19 -11 52 -14 72 -26 175 -206 865 -263
1008 -3 8 -7 20 -9 25 -11 43 -150 442 -163 470 -6 11 -19 43 -29 70 -125 326
-330 754 -459 964 l-71 115 22 33 c13 18 43 47 67 64 42 30 176 161 210 205
41 54 81 155 86 218 5 58 10 69 44 106 22 23 39 45 39 50 0 9 -48 5 -95 -8
-23 -7 -36 -5 -56 9 -77 54 -272 61 -414 15 -44 -14 -83 -26 -87 -26 -5 0 -25
-10 -45 -21 -21 -12 -57 -23 -80 -26 -46 -4 -41 -10 -123 142 -33 62 -209 346
-220 355 -3 3 -37 50 -75 105 -62 89 -188 255 -341 450 -30 38 -83 101 -117
139 -34 38 -68 78 -76 89 -8 11 -28 34 -45 52 -32 34 -51 55 -176 195 -122
137 -392 404 -611 606 -122 112 -418 344 -438 344 -6 0 -11 4 -11 8 0 4 -46
32 -102 61 -77 39 -117 53 -158 57 -49 3 -57 1 -70 -19z"/>
</g>
</svg>
